<svg width="112" height="113" viewBox="0 0 112 113" fill="none" xmlns="http://www.w3.org/2000/svg">
<g clip-path="url(#clip0_126_36)">
<path d="M1.5 1.5L81 1L111 22V112H21L1 95.5L1.5 1.5Z" fill="white"/>
<path d="M64.1021 67.027C63.4688 65.2005 62.3972 61.3191 61.2444 58.4815C60.6761 57.0789 59.8806 55.8069 58.8901 54.6653C55.1719 50.2784 51.1615 44.4074 48.0766 42.532C39.3575 35.1932 24.1276 33.7581 32.8466 48.7128C35.8829 55.1219 32.0835 67.1738 41.6144 69.0818C45.0078 69.832 38.6756 71.5118 38.5294 74.8876C36.8084 76.763 35.3308 80.3671 36.0939 83.6288C36.6622 86.0261 40.0394 87.82 39.8446 90.4946C39.5848 93.9193 41.5982 94.0498 45.0728 94.4901C47.2485 94.7673 50.9017 97.9638 52.4929 95.2892C52.9638 93.9193 54.1003 92.9245 55.2694 92.0276C57.8023 89.8423 57.1528 86.3034 58.2082 83.4983C61.3256 78.6059 64.9139 73.1752 64.0858 67.0596L64.1021 67.027Z" fill="#00AEEF"/>
<path d="M68.7457 67.239C69.3789 65.4125 70.4505 61.5311 71.6033 58.6935C72.1716 57.2909 72.9672 56.0189 73.9576 54.8773C77.6758 50.4904 81.6863 44.6194 84.7712 42.744C93.4903 35.4052 108.72 33.9701 100.001 48.9248C96.9649 55.334 100.764 67.3858 91.2334 69.2938C87.8399 70.044 94.1722 71.7238 94.3183 75.0996C96.0394 76.975 97.5169 80.5792 96.7538 83.8408C96.1855 86.2381 92.8083 88.032 93.0032 90.7066C93.263 94.1313 91.2496 94.2618 87.775 94.7021C85.5993 94.9794 81.9461 98.1758 80.3549 95.5012C79.884 94.1313 78.7474 93.1365 77.5784 92.2396C75.0455 90.0543 75.695 86.5154 74.6396 83.7103C71.5222 78.8179 67.9339 73.3872 68.7619 67.2716L68.7457 67.239Z" fill="#00AEEF"/>
<path d="M66.5701 60.4384C67.0409 60.4874 67.593 61.4985 67.7229 61.9551C67.9664 62.8358 67.7229 64.4014 67.4144 65.5592C67.2195 66.3257 67.1059 67.0922 67.1871 67.875C67.4144 70.5659 68.421 73.7949 67.7229 76.1922C67.5118 76.9098 67.1221 78.8668 66.3752 78.8505C65.6283 78.8342 65.2224 76.7956 65.0925 76.0291C64.6542 73.5014 65.7582 69.7178 65.6771 67.1738C65.4497 65.8691 64.8003 62.6074 65.4497 61.4169C65.6283 61.0908 66.2129 60.3895 66.5863 60.4221L66.5701 60.4384Z" fill="#00AEEF"/>
<path d="M67.6903 58.2694C67.7065 56.8506 68.0475 55.4807 68.5184 54.1598C69.2815 51.4526 70.4992 48.7128 72.6587 46.8537C73.2757 46.3481 74.2824 45.2228 75.2078 45.4512C75.7761 45.7773 76.0034 46.3318 76.2145 46.8863C75.8411 46.609 75.4189 46.2176 74.9805 46.2176C71.8956 47.7343 70.1907 51.1754 69.2815 54.4207C68.9568 55.6601 68.356 57.1768 67.6741 58.2694H67.6903Z" fill="#00AEEF"/>
<path d="M64.8327 58.1227C64.1507 57.03 63.55 55.5134 63.2253 54.2739C62.316 51.0286 60.6112 47.5875 57.5262 46.0709C57.0878 46.0709 56.6657 46.4623 56.2922 46.7395C56.5033 46.185 56.7306 45.6305 57.2989 45.3044C58.2082 45.0761 59.2311 46.2013 59.8481 46.7069C62.0075 48.566 63.2253 51.3058 63.9884 54.013C64.4592 55.334 64.8002 56.6875 64.8327 58.1227Z" fill="#00AEEF"/>
<path d="M36.8733 4.17491L37.4903 14.074L62.5109 17.8086V13.6826L87.4503 15.5907L54.9933 4.77832L54.7823 10.4047L36.8733 4.17491Z" fill="#00AEEF"/>
<path d="M110.279 21.7226H22.455C21.8363 21.7226 21.3347 22.2264 21.3347 22.8479V111.059C21.3347 111.681 21.8363 112.185 22.455 112.185H110.279C110.897 112.185 111.399 111.681 111.399 111.059V22.8479C111.399 22.2264 110.897 21.7226 110.279 21.7226Z" stroke="#2968EE" stroke-width="0.75" stroke-miterlimit="10"/>
<path d="M21.5459 22.0325L2.1594 2.5604C1.65607 2.05485 0.811768 2.41363 0.811768 3.11488V95.5665C0.811768 95.6806 0.860477 95.8111 0.957897 95.8763L21.0101 112.087C21.2699 112.299 21.6595 112.103 21.6595 111.777V22.326C21.6595 22.2119 21.6108 22.114 21.5459 22.0488V22.0325Z" stroke="#2968EE" stroke-miterlimit="10"/>
<path d="M110.587 21.1518C110.587 21.1518 88.6356 5.9036 81.3129 0.815416C81.2642 0.782799 0.811862 1.09266 1.0067 1.28836L21.2537 21.6248C21.2537 21.6248 21.3836 21.7226 21.4648 21.7226H110.409C110.717 21.7226 110.831 21.3312 110.587 21.1518Z" stroke="#2968EE" stroke-miterlimit="10"/>
<path d="M14.9701 49.887L14.9051 51.6646V51.6972C14.8402 53.2628 14.7428 54.8936 14.6129 56.5571C14.5642 57.3562 14.4992 58.139 14.418 58.9544C14.418 59.0196 14.418 59.1012 14.4018 59.1664C14.0446 62.3628 13.249 67.2064 12.5184 70.1745C12.3398 70.8921 12.2586 71.3161 12.2099 71.4955C12.1936 71.4628 12.1612 71.3976 12.1449 71.3487C12.0475 71.1367 11.9338 70.8921 11.8364 70.6311C11.7877 70.517 11.7228 70.4028 11.6741 70.256C11.5117 69.9136 11.3818 69.4569 11.2357 69.0329C11.1058 68.6578 10.9921 68.2664 10.8947 67.8587C11.9501 64.3361 12.6807 59.199 13.0542 53.6053V53.5564C13.1841 51.7461 13.2652 49.887 13.2977 48.0116C13.2977 47.7017 13.2977 47.3918 13.314 47.082C13.3951 41.9449 13.1841 36.7588 12.6645 32.3067C12.5021 30.9042 12.2423 29.6321 11.8851 28.8983C9.96922 24.9843 8.68652 39.3029 8.96255 45.2391C8.8976 45.2718 8.83265 45.3044 8.75147 45.3533C8.70276 45.3696 8.67029 45.4022 8.62158 45.4185C8.5404 45.4675 8.44298 45.5164 8.36179 45.5816C8.36179 45.5816 8.34556 45.5979 8.32932 45.6142C7.84222 45.9404 7.35512 46.4133 6.93297 46.9678C6.86803 46.1687 6.88426 44.8477 6.93297 43.3148C8.00459 7.63228 15.9443 20.7278 14.9701 49.9033V49.887Z" fill="#00AEEF"/>
<path d="M12.8269 48.8759C12.8269 49.1857 12.8269 49.4956 12.8106 49.8055C12.7619 51.6809 12.6807 53.54 12.5671 55.3503V55.3992C12.5671 55.3992 11.7228 54.4696 11.4468 54.2902C10.5375 53.7521 9.57956 53.7847 8.65408 54.4533L6.83558 56.7365C6.02375 58.2531 5.2931 60.4058 4.74106 63.2435C3.50708 75.703 6.02375 79.4376 8.65408 73.958C8.65408 73.958 8.65408 73.9743 8.67031 73.9743C8.94633 75.5073 9.25483 76.9261 9.61204 78.1003V78.2634C9.1087 80.253 8.00461 82.1284 7.30644 83.1559C5.97504 84.379 4.67611 83.2048 3.66944 79.2745C0.82804 68.2012 3.55579 53.9314 6.33224 48.9085C6.36472 48.8596 6.39719 48.8107 6.4459 48.7617C6.88429 48.2072 7.35515 47.7343 7.84225 47.4081C7.84225 47.3918 7.85848 47.3755 7.87472 47.3755C7.9559 47.3266 8.03709 47.2614 8.13451 47.2124C8.18322 47.1961 8.21569 47.1635 8.2644 47.1472C8.32934 47.1146 8.39429 47.082 8.47547 47.0331C9.66074 46.3807 10.7648 45.9241 11.9014 47.3918C12.3073 47.9137 12.7457 48.7291 12.8431 48.8922L12.8269 48.8759Z" fill="#00AEEF"/>
<path d="M19.4676 79.5517C17.2919 90.8534 13.1191 86.1892 10.5699 79.8453C10.2127 78.6711 9.90421 77.2849 9.64443 75.7845C9.15733 73.1426 8.78389 70.1256 8.45916 67.239L8.05324 62.7542C7.92335 60.8625 7.80969 58.7913 7.79346 58.563L9.61195 56.2472C9.61195 58.3673 9.70937 60.4874 9.90421 62.477C9.9854 63.3739 10.0828 64.222 10.1315 64.6949C10.4075 67.3368 10.8297 69.5711 11.3493 71.4465C11.4629 71.8542 11.5766 72.2456 11.6902 72.6207C11.8364 73.061 11.9825 73.5014 12.1286 73.8438C12.1773 73.9906 12.2423 74.1211 12.291 74.2189C12.3884 74.4962 12.5021 74.7245 12.5995 74.9365C12.6157 74.9854 12.6482 75.0507 12.6644 75.0833C13.0216 75.8498 13.3951 76.4695 13.7848 76.9913C14.4017 78.0677 15.311 78.1655 16.1228 77.0403C17.0158 75.8008 17.7465 73.2078 17.7465 69.6037C17.7465 68.5273 17.6815 67.4999 17.5029 66.7824C17.3406 65.9833 16.8697 64.4503 16.5775 63.5533C16.4313 63.0804 16.269 62.6727 16.1066 62.3139L15.0837 60.1612C15.2136 58.4815 15.2948 56.8506 15.3759 55.285V55.2524L15.4409 53.4748L15.4734 52.6105L16.2527 54.0456L16.9022 55.5134C16.9022 55.5134 16.9184 55.5786 16.9347 55.6275C17.2919 56.5734 17.9089 58.2531 18.4771 59.9981C19.1753 62.1508 19.6624 65.1026 19.8735 68.3969C20.1008 72.2293 20.0846 76.4695 19.4513 79.5191L19.4676 79.5517Z" fill="#00AEEF"/>
</g>
<defs>
<clipPath id="clip0_126_36">
<rect width="112" height="113" fill="white"/>
</clipPath>
</defs>
</svg>
