<?xml version="1.0" encoding="UTF-8"?>
<svg xmlns="http://www.w3.org/2000/svg" viewBox="0 0 68.98 69.29">
  <defs>
    <style>
      .cls-1 {
        stroke-width: .75px;
      }

      .cls-1, .cls-2 {
        fill: none;
        stroke: #1d1d1b;
        stroke-miterlimit: 10;
      }
    </style>
  </defs>
  <g id="Calque_6" data-name="Calque 6">
    <path d="M39.48,41.1c-.39-1.12-1.05-3.5-1.76-5.24-.35-.86-.84-1.64-1.45-2.34-2.29-2.69-4.76-6.29-6.66-7.44-5.37-4.5-14.75-5.38-9.38,3.79,1.87,3.93-.47,11.32,5.4,12.49,2.09.46-1.81,1.49-1.9,3.56-1.06,1.15-1.97,3.36-1.5,5.36.35,1.47,2.43,2.57,2.31,4.21-.16,2.1,1.08,2.18,3.22,2.45,1.34.17,3.59,2.13,4.57.49.29-.84.99-1.45,1.71-2,1.56-1.34,1.16-3.51,1.81-5.23,1.92-3,4.13-6.33,3.62-10.08Z"/>
    <path d="M42.34,41.23c.39-1.12,1.05-3.5,1.76-5.24.35-.86.84-1.64,1.45-2.34,2.29-2.69,4.76-6.29,6.66-7.44,5.37-4.5,14.75-5.38,9.38,3.79-1.87,3.93.47,11.32-5.4,12.49-2.09.46,1.81,1.49,1.9,3.56,1.06,1.15,1.97,3.36,1.5,5.36-.35,1.47-2.43,2.57-2.31,4.21.16,2.1-1.08,2.18-3.22,2.45-1.34.17-3.59,2.13-4.57.49-.29-.84-.99-1.45-1.71-2-1.56-1.34-1.16-3.51-1.81-5.23-1.92-3-4.13-6.33-3.62-10.08Z"/>
    <path d="M41,37.06c.29.03.63.65.71.93.15.54,0,1.5-.19,2.21-.12.47-.19.94-.14,1.42.14,1.65.76,3.63.33,5.1-.13.44-.37,1.64-.83,1.63s-.71-1.26-.79-1.73c-.27-1.55.41-3.87.36-5.43-.14-.8-.54-2.8-.14-3.53.11-.2.47-.63.7-.61Z"/>
    <path d="M41.69,35.73c.01-.87.22-1.71.51-2.52.47-1.66,1.22-3.34,2.55-4.48.38-.31,1-1,1.57-.86.35.2.49.54.62.88-.23-.17-.49-.41-.76-.41-1.9.93-2.95,3.04-3.51,5.03-.2.76-.57,1.69-.99,2.36h0Z"/>
    <path d="M39.93,35.64c-.42-.67-.79-1.6-.99-2.36-.56-1.99-1.61-4.1-3.51-5.03-.27,0-.53.24-.76.41.13-.34.27-.68.62-.88.56-.14,1.19.55,1.57.86,1.33,1.14,2.08,2.82,2.55,4.48.29.81.5,1.64.52,2.52h0Z"/>
  </g>
  <g id="Calque_4" data-name="Calque 4">
    <polygon points="22.71 2.56 23.09 8.63 38.5 10.92 38.5 8.39 53.86 9.56 33.87 2.93 33.74 6.38 22.71 2.56"/>
  </g>
  <g id="Calque_1" data-name="Calque 1">
    <rect class="cls-1" x="13.14" y="13.32" width="55.47" height="55.47" rx=".69" ry=".69"/>
    <path class="cls-2" d="M13.27,13.51L1.33,1.57c-.31-.31-.83-.09-.83.34v56.69c0,.07.03.15.09.19l12.35,9.94c.16.13.4.01.4-.19V13.69c0-.07-.03-.13-.07-.17Z"/>
    <path class="cls-2" d="M68.11,12.97S54.59,3.62,50.08.5c-.03-.02-49.58.17-49.46.29l12.47,12.47s.08.06.13.06h54.78c.19,0,.26-.24.11-.35Z"/>
  </g>
  <g id="Calque_3" data-name="Calque 3">
    <path d="M9.22,30.59l-.04,1.09v.02c-.04.96-.1,1.96-.18,2.98h0c-.03.49-.07.97-.12,1.47,0,.04,0,.09-.01.13-.22,1.96-.71,4.93-1.16,6.75-.11.44-.16.7-.19.81-.01-.02-.03-.06-.04-.09-.06-.13-.13-.28-.19-.44-.03-.07-.07-.14-.1-.23-.1-.21-.18-.49-.27-.75-.08-.23-.15-.47-.21-.72.65-2.16,1.1-5.31,1.33-8.74v-.03c.08-1.11.13-2.25.15-3.4,0-.19,0-.38.01-.57.05-3.15-.08-6.33-.4-9.06-.1-.86-.26-1.64-.48-2.09-1.18-2.4-1.97,6.38-1.8,10.02-.04.02-.08.04-.13.07-.03.01-.05.03-.08.04-.05.03-.11.06-.16.1,0,0-.01.01-.02.02-.3.2-.6.49-.86.83-.04-.49-.03-1.3,0-2.24.66-21.88,5.55-13.85,4.95,4.04Z"/>
    <path d="M7.9,29.97c0,.19,0,.38-.01.57-.03,1.15-.08,2.29-.15,3.4v.03s-.52-.57-.69-.68c-.56-.33-1.15-.31-1.72.1l-1.12,1.4c-.5.93-.95,2.25-1.29,3.99-.76,7.64.79,9.93,2.41,6.57,0,0,0,.01.01.01.17.94.36,1.81.58,2.53v.1c-.31,1.22-.99,2.37-1.42,3-.82.75-1.62.03-2.24-2.38-1.75-6.79-.07-15.54,1.64-18.62.02-.03.04-.06.07-.09.27-.34.56-.63.86-.83,0-.01.01-.02.02-.02.05-.03.1-.07.16-.1.03-.01.05-.03.08-.04.04-.02.08-.04.13-.07.73-.4,1.41-.68,2.11.22.25.32.52.82.58.92Z"/>
    <path d="M11.99,48.78c-1.34,6.93-3.91,4.07-5.48.18-.22-.72-.41-1.57-.57-2.49-.3-1.62-.53-3.47-.73-5.24l-.25-2.75c-.08-1.16-.15-2.43-.16-2.57l1.12-1.42h0c0,1.3.06,2.6.18,3.82.05.55.11,1.07.14,1.36.17,1.62.43,2.99.75,4.14.07.25.14.49.21.72.09.27.18.54.27.75.03.09.07.17.1.23.06.17.13.31.19.44.01.03.03.07.04.09.22.47.45.85.69,1.17.38.66.94.72,1.44.03.55-.76,1-2.35,1-4.56,0-.66-.04-1.29-.15-1.73-.1-.49-.39-1.43-.57-1.98-.09-.29-.19-.54-.29-.76l-.63-1.32h0c.08-1.03.13-2.03.18-2.99v-.02l.04-1.09.02-.53.48.88.4.9s.01.04.02.07c.22.58.6,1.61.95,2.68.43,1.32.73,3.13.86,5.15.14,2.35.13,4.95-.26,6.82Z"/>
  </g>
</svg>