<svg width="33" height="34" viewBox="0 0 33 34" fill="none" xmlns="http://www.w3.org/2000/svg">
<path fill-rule="evenodd" clip-rule="evenodd" d="M24.8379 16.0417C29.2677 16.0417 32.8587 12.4506 32.8587 8.02083C32.8587 3.59104 29.2677 0 24.8379 0C20.4081 0 16.8171 3.59104 16.8171 8.02083C16.8171 12.4506 20.4081 16.0417 24.8379 16.0417ZM26.3549 18.854C26.8875 18.7801 27.3904 19.1754 27.3904 19.7131C27.3904 19.8575 27.428 19.9995 27.4996 20.125L30.4765 25.3471C31.1693 26.5624 30.2917 28.0729 28.8928 28.0729H1.82579C0.426986 28.0729 -0.450608 26.5625 0.242083 25.3473L3.06542 20.3941C3.23742 20.0924 3.32787 19.751 3.32787 19.4037V13.125C3.32787 6.48032 8.71445 1.09375 15.3592 1.09375C15.7758 1.09375 15.9891 1.57747 15.7566 1.92313C15.3629 2.50821 15.0243 3.13341 14.7482 3.7913C14.4968 4.39024 13.9627 4.82969 13.3323 4.98618C9.6804 5.89264 6.97371 9.19273 6.97371 13.125V20.4166C6.97371 20.7332 6.89127 21.0443 6.73451 21.3194L6.66765 21.4367C5.90767 22.77 6.87051 24.4271 8.4052 24.4271H22.313C23.8477 24.4271 24.8106 22.7699 24.0505 21.4366L23.9838 21.3195L23.9357 21.2353C23.8105 21.0154 23.7446 20.7667 23.7446 20.5137V19.9996C23.7446 19.4131 24.2515 18.9583 24.838 18.9583C25.3527 18.9583 25.8591 18.9228 26.3549 18.854ZM18.2754 32.0833C18.2754 33.0901 17.4592 33.9062 16.4525 33.9062H14.265C13.2582 33.9062 12.4421 33.0901 12.4421 32.0833C12.4421 31.0766 13.2582 30.2604 14.265 30.2604H16.4525C17.4592 30.2604 18.2754 31.0766 18.2754 32.0833Z" fill="#180C35"/>
</svg>
